<svg width="120" height="30" fill="none" xmlns="http://www.w3.org/2000/svg"><g clip-path="url(#a)"><path d="M15.485 0c4.618 2.037 8.04 7.107 8.7 13.714.66 6.566-1.69 12.26-5.814 15.169 5.649-1.58 8.947-8.063 8.205-15.418C25.876 6.068 21.38.415 15.486 0Z" fill="#FFDE09"/><path d="M10.002.416C3.282 1.08-.718 8.104.107 16.166c.825 8.061 6.143 14.13 12.864 13.423 6.68-.665 10.72-7.689 9.895-15.75C22 5.776 16.681-.291 10.002.416ZM2.416 16C1.262 8.977 4.89 3.283 9.755 2.785c3.215-.333 5.153 1.371 5.978 2.244.494.54.577.748-.248.498-1.484-.415-3.586-.581-5.442-.207-5.153 1.039-6.473 5.776-3.958 9.06 1.443 1.87 2.556 3.033 4.081 4.571 5.279 5.236-6.101 6.94-7.75-2.951Zm10.967 11.345c-2.804.54-5.236-.997-6.061-1.995-.495-.582-.66-.706.206-.54 1.567.292 3.752.332 5.648-.208 5.278-1.455 6.226-6.317 3.422-9.434-1.154-1.287-3.381-3.324-4.535-4.28-5.814-4.904 5.854-7.563 8.245 2.327 1.692 6.983-2.06 13.175-6.925 14.13Z" fill="#FFDE09"/><path d="M83.883 14.379V6.524c0-.083.042-.083.083-.083h6.762c1.03 0 2.02.083 3.009.415.619.208 1.237.499 1.732.956.824.748 1.237 1.704 1.195 2.826 0 .624-.123 1.248-.412 1.83-.33.665-.99 1.163-1.773 1.329-.206.042-.29.042-.29.208 0 .166.124.166.33.208.867.166 1.65.623 2.103 1.247a3.44 3.44 0 0 1 .619 1.745c.082.79 0 1.538-.29 2.286-.37.997-1.112 1.703-2.06 2.16-.743.375-1.526.54-2.35.624-.578.042-1.196.084-1.774.084H83.923c-.041 0-.083-.042-.083-.084v-.166c.043-2.618.043-5.154.043-7.73Zm3.917 3.034v1.829c0 .208 0 .208.207.208h3.174c.207 0 .413 0 .619-.042.577-.084 1.072-.332 1.443-.831a2.21 2.21 0 0 0 .371-1.248c0-.79-.33-1.33-.99-1.661a2.94 2.94 0 0 0-1.195-.25h-3.422c-.164 0-.164 0-.164.166-.043.582-.043 1.205-.043 1.829Zm0-6.234v1.662c0 .208 0 .208.207.208h3.05c.33 0 .619-.042.948-.124.701-.166 1.155-.582 1.278-1.288.042-.292.042-.54 0-.832-.083-.498-.37-.873-.825-1.121-.453-.25-.906-.333-1.402-.333h-3.05c-.165 0-.165 0-.165.166-.04.54-.04 1.08-.04 1.662ZM112.703 16.083v-2.66c0-.207 0-.207-.207-.207h-1.402c-.164 0-.164 0-.164-.166v-2.493c0-.167 0-.167.164-.167h1.32c.289-.041.494-.166.577-.457l.123-.498c.042-.499.124-1.04.165-1.538 0-.166 0-.166.165-.166h2.598c.206 0 .206 0 .206.208v2.285c0 .208 0 .208.206.208h3.34c.206 0 .206 0 .206.208v2.41c0 .209 0 .209-.206.209h-3.34c-.248 0-.248 0-.248.207v4.489a2 2 0 0 0 .042.498c.083.624.412.998 1.071 1.122.454.083.907.083 1.402.042.33-.042.66-.084 1.031-.125.083 0 .165 0 .165.125v2.493c0 .124-.041.124-.123.166-.99.166-1.938.291-2.928.208a7.023 7.023 0 0 1-1.855-.374c-1.237-.457-1.979-1.372-2.226-2.701-.083-.416-.083-.873-.124-1.288.042-.708.042-1.373.042-2.038ZM34.904 16.914h1.525c.206 0 .206 0 .206.208 0 .374.042.706.165 1.039.206.623.66 1.04 1.278 1.288a5.283 5.283 0 0 0 1.773.291c.742 0 1.484-.042 2.185-.332.825-.332 1.278-1.122 1.072-1.995-.083-.54-.412-.831-.907-.997a15.269 15.269 0 0 0-1.32-.292c-1.07-.208-2.184-.332-3.256-.54a11.873 11.873 0 0 1-2.392-.623c-1.195-.499-1.896-1.372-2.102-2.66-.165-.873-.123-1.787.206-2.618.33-.956.948-1.662 1.773-2.203.907-.582 1.896-.873 2.927-1.04 1.32-.207 2.68-.165 4 .042.824.125 1.648.374 2.39.832.99.623 1.568 1.496 1.856 2.618.165.582.206 1.206.247 1.83 0 .207 0 .207-.206.207h-3.05c-.165 0-.207-.042-.207-.208-.041-.332-.083-.706-.206-1.04-.247-.705-.742-1.163-1.443-1.37-1.155-.333-2.35-.333-3.463.166-1.113.457-1.196 1.537-.867 2.369.124.29.371.498.701.581.536.166 1.113.292 1.649.416.99.208 2.02.332 3.05.54.784.166 1.609.332 2.35.665 1.238.499 1.938 1.414 2.103 2.701a5.32 5.32 0 0 1-.289 2.66c-.33.914-.948 1.58-1.773 2.077-.742.458-1.567.707-2.391.832-1.484.25-2.928.291-4.412.083-.866-.124-1.731-.374-2.515-.79-1.195-.665-1.937-1.703-2.267-3.033-.123-.498-.165-.997-.206-1.537 0-.166.041-.166.206-.166l1.61-.001ZM52.302 20.28c0 .042.042.748.042 1.122.041.498.041.998.041 1.496v4.072c0 .084-.041.125-.123.125h-3.298c-.207 0-.207 0-.207-.208V10.721c0-.208 0-.208.207-.208h3.175c.206 0 .206 0 .206.208 0 .624-.083 1.288-.083 1.953 0 .084.041.125.123.125.083.041.165 0 .206-.125.413-.997 1.155-1.787 1.897-2.036 1.566-.582 4.123-.416 5.69 1.247.783.831 1.237 1.87 1.443 2.992a8.934 8.934 0 0 1-.248 3.907c-.453 1.371-1.195 2.493-2.473 3.158-.948.498-1.649.624-3.01.624-1.36 0-2.72-.914-3.298-2.203-.041-.125-.123-.166-.206-.125-.042-.04-.084 0-.084.042Zm.125-3.698v.54c.041.873.412 1.579 1.154 2.077.454.332.99.458 1.525.499 1.196.124 2.186-.458 2.68-1.538.454-1.04.536-2.12.206-3.2-.33-1.08-1.071-1.787-2.226-1.912-1.278-.124-2.557.458-3.093 1.83-.205.582-.246 1.164-.246 1.704ZM72.752 13.59c.206-.583.825-2.702 3.175-3.16.783-.166 1.896-.166 2.844.084.907.25 1.69.706 2.267 1.496.454.623.66 1.33.784 2.12.041.29.041.623.041.955v7.189c0 .084-.041.125-.123.125H78.483c-.248 0-.248 0-.248-.25v-6.234c0-.373-.041-.747-.165-1.121-.206-.582-.577-.998-1.154-1.206-.866-.291-1.731-.291-2.598.042-.783.291-1.277.914-1.525 1.745-.165.499-.206 1.04-.206 1.58v5.361c0 .084-.041.124-.124.124H69.207c-.248 0-.248 0-.248-.25V10.805c0-.25 0-.25.248-.25h3.133c.206 0 .206 0 .206.208-.041.873-.165 2.784-.165 2.867 0 .042.042.084.124.084.082 0 .247-.082.247-.124ZM67.104 16.416v5.817c0 .084-.041.125-.123.125h-3.257c-.248 0-.248 0-.248-.25V10.721c0-.25 0-.25.248-.25h3.133c.248 0 .248 0 .248.25l-.001 5.695ZM65.29 6.317h1.608c.123 0 .165.042.165.166v2.535c0 .166-.042.166-.207.166h-3.215c-.206 0-.206 0-.206-.207V6.483c0-.166 0-.166.206-.166h1.649ZM108.786 11.636c-1.154-.998-2.515-1.496-4.123-1.538-1.113 0-2.227.25-3.215.832-2.021 1.163-3.01 2.992-3.01 5.486 0 1.911.536 3.448 1.732 4.612 1.196 1.122 2.721 1.704 4.576 1.704 1.814 0 3.463-.665 4.823-1.953.042-.042.042-.084 0-.125l-1.854-2.037s-.042-.041-.083-.041c0 0-.042 0-.083.041a3.842 3.842 0 0 1-2.804 1.164c-1.154 0-2.474-.873-2.68-2.037 0-.041.042-.083.083-.083h8.163c.042 0 .083-.042.083-.084v-1.703c0-1.828-.454-3.24-1.608-4.238Zm-6.555 3.574c-.042 0-.083-.042-.083-.083.289-1.288 1.525-2.037 2.474-2.037a2.68 2.68 0 0 1 1.608.54c.371.332.618.914.742 1.496 0 .042-.042.083-.083.083h-4.658v.001Z" fill="#fff"/></g><defs><clipPath id="a"><path fill="#fff" d="M0 0h120v29.645H0z"/></clipPath></defs></svg>